<svg width="40" height="39" viewBox="0 0 40 39" fill="none" xmlns="http://www.w3.org/2000/svg">
<g clip-path="url(#clip0_522_37)">
<path fill-rule="evenodd" clip-rule="evenodd" d="M7.35649 13.4643C7.35649 12.1822 6.32725 11.1429 5.05764 11.1429C3.78802 11.1429 2.75879 12.1822 2.75879 13.4643V27.3929V28.7857V34.3572C2.75879 36.9213 4.81727 39 7.35649 39H33.1036C35.6429 39 37.7013 36.9213 37.7013 34.3572V28.7857V27.3929V13.4643C37.7013 12.1822 36.6721 11.1429 35.4025 11.1429C34.1329 11.1429 33.1036 12.1822 33.1036 13.4643V27.3929H7.35649V13.4643Z" fill="#1B313E"/>
<path fill-rule="evenodd" clip-rule="evenodd" d="M2.81278 8.837L6.97836 1.85712H32.712L37.447 9.10113H37.368C37.8696 9.88499 38.1608 10.819 38.1608 11.8217C38.1608 14.5937 35.9354 16.8409 33.1904 16.8409C31.4198 16.8409 29.8655 15.9061 28.9851 14.4985C28.1046 15.9061 26.5503 16.8409 24.7798 16.8409C22.8726 16.8409 21.2162 15.7561 20.3828 14.1642C19.5494 15.7561 17.8931 16.8409 15.9858 16.8409C13.9192 16.8409 12.1473 15.5673 11.3975 13.755C10.6478 15.5673 8.87583 16.8409 6.80926 16.8409C4.06419 16.8409 1.83887 14.5937 1.83887 11.8217C1.83887 10.7038 2.20079 9.67123 2.81278 8.837ZM10.9869 9.10113C11.1457 9.34934 11.2835 9.61264 11.3975 9.88838C11.5116 9.61264 11.6494 9.34934 11.8082 9.10113H10.9869ZM20.1634 9.10113C20.2418 9.22361 20.315 9.34971 20.3828 9.4792C20.4506 9.34971 20.5238 9.22361 20.6022 9.10113H20.1634ZM28.9574 9.10113C28.9667 9.11567 28.9759 9.13024 28.9851 9.14487C28.9942 9.13024 29.0035 9.11567 29.0128 9.10113H28.9574Z" fill="#25394C"/>
<path d="M6.97818 1.85712V0.232117C6.41409 0.232117 5.89115 0.530425 5.59993 1.01834L6.97818 1.85712ZM2.8126 8.837L4.10564 9.80429C4.13605 9.76283 4.16449 9.71993 4.19085 9.67578L2.8126 8.837ZM32.7118 1.85712L34.0548 0.961941C33.757 0.506287 33.2524 0.232117 32.7118 0.232117V1.85712ZM37.4468 9.10113V10.7261C38.0389 10.7261 38.5832 10.3977 38.8638 9.8712C39.1444 9.34465 39.116 8.70501 38.7898 8.20594L37.4468 9.10113ZM37.3678 9.10113V7.47613C36.7785 7.47613 36.2362 7.80146 35.9545 8.32415C35.6727 8.84684 35.6964 9.48329 36.0163 9.98314L37.3678 9.10113ZM28.9849 14.4985L30.3454 13.6308C30.0505 13.1594 29.537 12.8735 28.9849 12.8735C28.4328 12.8735 27.9192 13.1594 27.6244 13.6308L28.9849 14.4985ZM20.3826 14.1642L21.8053 13.4047C21.5265 12.8723 20.979 12.5392 20.3826 12.5392C19.7862 12.5392 19.2387 12.8723 18.96 13.4047L20.3826 14.1642ZM11.3974 13.755L12.8822 13.1287C12.632 12.5238 12.0465 12.13 11.3974 12.13C10.7483 12.13 10.1627 12.5238 9.91253 13.1287L11.3974 13.755ZM10.9867 9.10113V7.47613C10.3974 7.47613 9.85515 7.80146 9.57335 8.32415C9.29156 8.84684 9.31529 9.48329 9.63515 9.98314L10.9867 9.10113ZM11.3974 9.88838L9.91253 10.5148C10.1627 11.1196 10.7483 11.5134 11.3974 11.5134C12.0465 11.5134 12.632 11.1196 12.8822 10.5148L11.3974 9.88838ZM11.808 9.10113L13.1596 9.98314C13.4794 9.48329 13.5031 8.84684 13.2214 8.32415C12.9396 7.80146 12.3974 7.47613 11.808 7.47613V9.10113ZM20.1632 9.10113V7.47613C19.5739 7.47613 19.0317 7.80146 18.7499 8.32415C18.4681 8.84684 18.4918 9.48329 18.8117 9.98314L20.1632 9.10113ZM20.3826 9.4792L18.96 10.2387C19.2387 10.7711 19.7862 11.1042 20.3826 11.1042C20.979 11.1042 21.5265 10.7711 21.8053 10.2387L20.3826 9.4792ZM20.602 9.10113L21.9535 9.98314C22.2734 9.48329 22.2971 8.84684 22.0153 8.32415C21.7335 7.80146 21.1913 7.47613 20.602 7.47613V9.10113ZM28.9573 9.10113V7.47613C28.3679 7.47613 27.8257 7.80146 27.5439 8.32415C27.2621 8.8468 27.2858 9.48324 27.6057 9.98309L28.9573 9.10113ZM28.9849 9.14487L27.6244 10.0128C27.9193 10.4841 28.4328 10.7699 28.9849 10.7699C29.537 10.7699 30.0505 10.4841 30.3454 10.0128L28.9849 9.14487ZM29.0126 9.10113L30.3642 9.98309C30.684 9.48324 30.7077 8.8468 30.4259 8.32415C30.1441 7.80146 29.6019 7.47613 29.0126 7.47613V9.10113ZM5.59993 1.01834L1.43435 7.99822L4.19085 9.67578L8.35643 2.6959L5.59993 1.01834ZM32.7118 0.232117H6.97818V3.48212H32.7118V0.232117ZM38.7898 8.20594L34.0548 0.961941L31.3688 2.75229L36.1037 9.99632L38.7898 8.20594ZM37.3678 10.7261H37.4468V7.47613H37.3678V10.7261ZM36.0163 9.98314C36.3547 10.5121 36.5514 11.1413 36.5514 11.8217H39.7698C39.7698 10.4968 39.3841 9.25788 38.7193 8.21918L36.0163 9.98314ZM36.5514 11.8217C36.5514 13.6963 35.0465 15.2159 33.1902 15.2159V18.4659C36.824 18.4659 39.7698 15.4912 39.7698 11.8217H36.5514ZM33.1902 15.2159C31.9946 15.2159 30.9434 14.5868 30.3454 13.6308L27.6244 15.3664C28.7873 17.2254 30.8447 18.4659 33.1902 18.4659V15.2159ZM27.6244 13.6308C27.0264 14.5868 25.9752 15.2159 24.7796 15.2159V18.4659C27.1251 18.4659 29.1825 17.2254 30.3454 15.3664L27.6244 13.6308ZM24.7796 15.2159C23.4921 15.2159 22.371 14.4854 21.8053 13.4047L18.96 14.9237C20.0611 17.0269 22.2527 18.4659 24.7796 18.4659V15.2159ZM18.96 13.4047C18.3943 14.4854 17.2731 15.2159 15.9856 15.2159V18.4659C18.5126 18.4659 20.7042 17.0269 21.8053 14.9237L18.96 13.4047ZM15.9856 15.2159C14.5906 15.2159 13.3905 14.3574 12.8822 13.1287L9.91253 14.3815C10.9037 16.7773 13.2475 18.4659 15.9856 18.4659V15.2159ZM9.91253 13.1287C9.40421 14.3574 8.20407 15.2159 6.80908 15.2159V18.4659C9.54724 18.4659 11.8911 16.7773 12.8822 14.3815L9.91253 13.1287ZM6.80908 15.2159C4.95276 15.2159 3.44788 13.6963 3.44788 11.8217H0.229492C0.229492 15.4912 3.17528 18.4659 6.80908 18.4659V15.2159ZM3.44788 11.8217C3.44788 11.0638 3.69197 10.3682 4.10564 9.80429L1.51956 7.86971C0.709253 8.97429 0.229492 10.3438 0.229492 11.8217H3.44788ZM9.63515 9.98314C9.74264 10.1511 9.83561 10.3289 9.91253 10.5148L12.8822 9.26201C12.731 8.89638 12.5484 8.54766 12.3382 8.21918L9.63515 9.98314ZM12.8822 10.5148C12.9591 10.3289 13.0521 10.1511 13.1596 9.98314L10.4565 8.21918C10.2462 8.54766 10.0637 8.89638 9.91253 9.26201L12.8822 10.5148ZM10.9867 10.7261H11.808V7.47613H10.9867V10.7261ZM18.8117 9.98314C18.8647 10.066 18.9142 10.1513 18.96 10.2387L21.8053 8.71972C21.7155 8.54822 21.6185 8.38121 21.5148 8.21918L18.8117 9.98314ZM21.8053 10.2387C21.8511 10.1513 21.9005 10.066 21.9535 9.98314L19.2505 8.21918C19.1467 8.38121 19.0498 8.54822 18.96 8.71972L21.8053 10.2387ZM20.1632 10.7261H20.602V7.47613H20.1632V10.7261ZM27.6057 9.98309C27.612 9.99293 27.6182 10.0028 27.6244 10.0128L30.3454 8.27698C30.3333 8.25767 30.3211 8.2384 30.3088 8.21922L27.6057 9.98309ZM30.3454 10.0128C30.3516 10.0028 30.3579 9.99293 30.3642 9.98309L27.661 8.21922C27.6487 8.2384 27.6365 8.25767 27.6244 8.27698L30.3454 10.0128ZM28.9573 10.7261H29.0126V7.47613H28.9573V10.7261Z" fill="#25394C"/>
</g>
<defs>
<clipPath id="clip0_522_37">
<rect width="40" height="39" fill="white"/>
</clipPath>
</defs>
</svg>
