<svg width="99" height="96" viewBox="0 0 99 96" fill="none" xmlns="http://www.w3.org/2000/svg">
<path fill-rule="evenodd" clip-rule="evenodd" d="M26.8206 13.1435L30.3533 17.903C31.1078 18.9196 32.2991 19.519 33.5652 19.519H39.5882C40.8543 19.519 42.0456 18.9196 42.8002 17.903L46.3329 13.1435C47.3836 11.7278 47.3836 9.79115 46.3329 8.37548L42.8002 3.61598C42.0456 2.59937 40.8543 2 39.5882 2H33.5652C32.2991 2 31.1078 2.59937 30.3533 3.61598L26.8206 8.37548C25.7698 9.79115 25.7698 11.7278 26.8206 13.1435ZM47.6313 75.7513C55.1377 71.6642 60.2319 63.7055 60.2319 54.557C60.2319 49.9788 58.9562 45.6986 56.7408 42.0524C52.3425 43.8024 48.4799 46.9903 45.9294 51.408C41.35 59.3396 42.3187 68.9519 47.6313 75.7513ZM45.2859 87.4265C42.3681 88.2387 39.2927 88.6729 36.1159 88.6729C17.2742 88.6729 2 73.3987 2 54.557C2 35.7153 17.2742 20.441 36.1159 20.441C45.7138 20.441 54.386 24.4045 60.5851 30.7839C66.6939 29.9593 73.0842 30.8971 78.9505 33.813L78.7502 33.6974C77.6538 33.0644 76.9218 31.9496 76.7766 30.6919L76.1815 25.536C75.9793 23.7846 76.9477 22.1073 78.5655 21.4067L83.3283 19.3441C84.4901 18.841 85.8214 18.9176 86.9179 19.5506L91.546 22.2227C92.6425 22.8557 93.3745 23.9704 93.5197 25.2281L94.1148 30.3841C94.3169 32.1355 93.3486 33.8127 91.7308 34.5133L86.968 36.5759C85.8062 37.0791 84.4748 37.0025 83.3784 36.3695L82.4339 35.8242C96.3185 45.0386 100.814 63.5889 92.3671 78.2188C83.5827 93.4337 64.1275 98.6467 48.9127 89.8624C47.6321 89.123 46.4224 88.3081 45.2859 87.4265ZM37.5061 78.6335C37.046 78.6597 36.5825 78.6729 36.1159 78.6729C22.7971 78.6729 12 67.8759 12 54.557C12 41.2381 22.7971 30.441 36.1159 30.441C41.0447 30.441 45.6281 31.9196 49.4469 34.4575C44.5356 37.1614 40.2768 41.1984 37.2691 46.408C31.2971 56.7518 31.7946 69.0555 37.5061 78.6335ZM67.2715 40.6354C70.1652 40.9614 73.0405 41.8756 75.7235 43.4247C86.1554 49.4476 89.7297 62.7868 83.7068 73.2188C78.0819 82.9614 66.0755 86.7227 56.0157 82.2711C64.6254 76.0781 70.2319 65.9723 70.2319 54.557C70.2319 49.5982 69.174 44.8866 67.2715 40.6354Z" fill="white"/>
<path d="M30.3533 17.903L31.5577 17.009V17.009L30.3533 17.903ZM26.8206 13.1435L28.025 12.2495V12.2495L26.8206 13.1435ZM42.8002 17.903L41.5957 17.009V17.009L42.8002 17.903ZM46.3329 13.1435L45.1284 12.2495L46.3329 13.1435ZM46.3329 8.37548L45.1284 9.26949V9.26949L46.3329 8.37548ZM42.8002 3.61598L41.5957 4.50999V4.50999L42.8002 3.61598ZM30.3533 3.61598L31.5577 4.50999V4.50999L30.3533 3.61598ZM26.8206 8.37548L25.6161 7.48147V7.48147L26.8206 8.37548ZM47.6313 75.7513L46.4493 76.6748L47.232 77.6766L48.3485 77.0687L47.6313 75.7513ZM56.7408 42.0524L58.0227 41.2735L57.3643 40.1899L56.1862 40.6587L56.7408 42.0524ZM45.9294 51.408L44.6303 50.658L45.9294 51.408ZM45.2859 87.4265L46.2053 86.2413L45.6097 85.7793L44.8836 85.9814L45.2859 87.4265ZM60.5851 30.7839L59.5094 31.8293L60.0364 32.3716L60.7858 32.2704L60.5851 30.7839ZM78.9505 33.813L78.2828 35.1562L79.7005 32.514L78.9505 33.813ZM78.7502 33.6974L78.0002 34.9964H78.0002L78.7502 33.6974ZM76.7766 30.6919L75.2865 30.8639V30.8639L76.7766 30.6919ZM76.1815 25.536L77.6716 25.364V25.364L76.1815 25.536ZM78.5655 21.4067L79.1616 22.7832L78.5655 21.4067ZM83.3283 19.3441L83.9244 20.7206L83.3283 19.3441ZM86.9179 19.5506L86.1679 20.8497V20.8497L86.9179 19.5506ZM91.546 22.2227L92.296 20.9236V20.9236L91.546 22.2227ZM93.5197 25.2281L95.0098 25.0561V25.0561L93.5197 25.2281ZM94.1148 30.3841L92.6247 30.5561L94.1148 30.3841ZM91.7308 34.5133L92.3269 35.8898L91.7308 34.5133ZM86.968 36.5759L86.3719 35.1995L86.968 36.5759ZM83.3784 36.3695L82.6284 37.6685L83.3784 36.3695ZM82.4339 35.8242L83.1839 34.5251L81.6045 37.074L82.4339 35.8242ZM92.3671 78.2188L91.068 77.4688L92.3671 78.2188ZM48.9127 89.8624L48.1627 91.1614L48.9127 89.8624ZM37.5061 78.6335L37.5912 80.1311L40.0618 79.9907L38.7944 77.8653L37.5061 78.6335ZM49.4469 34.4575L50.1703 35.7715L52.3382 34.5779L50.2771 33.2082L49.4469 34.4575ZM37.2691 46.408L38.5681 47.158L37.2691 46.408ZM67.2715 40.6354L67.4394 39.1449L64.8295 38.8508L65.9023 41.2482L67.2715 40.6354ZM75.7235 43.4247L76.4735 42.1256L75.7235 43.4247ZM83.7068 73.2188L82.4078 72.4688L83.7068 73.2188ZM56.0157 82.2711L55.1398 81.0534L53.0135 82.5829L55.4087 83.6428L56.0157 82.2711ZM31.5577 17.009L28.025 12.2495L25.6161 14.0375L29.1488 18.797L31.5577 17.009ZM33.5652 18.019C32.7739 18.019 32.0293 17.6444 31.5577 17.009L29.1488 18.797C30.1863 20.1949 31.8244 21.019 33.5652 21.019V18.019ZM39.5882 18.019H33.5652V21.019H39.5882V18.019ZM41.5957 17.009C41.1241 17.6444 40.3795 18.019 39.5882 18.019V21.019C41.3291 21.019 42.9671 20.1949 44.0046 18.797L41.5957 17.009ZM45.1284 12.2495L41.5957 17.009L44.0046 18.797L47.5373 14.0375L45.1284 12.2495ZM45.1284 9.26949C45.7851 10.1543 45.7851 11.3647 45.1284 12.2495L47.5373 14.0375C48.9821 12.091 48.9821 9.42802 47.5373 7.48147L45.1284 9.26949ZM41.5957 4.50999L45.1284 9.26949L47.5373 7.48147L44.0046 2.72197L41.5957 4.50999ZM39.5882 3.5C40.3795 3.5 41.1241 3.8746 41.5957 4.50999L44.0046 2.72197C42.9671 1.32413 41.3291 0.5 39.5882 0.5V3.5ZM33.5652 3.5H39.5882V0.5H33.5652V3.5ZM31.5577 4.50999C32.0293 3.87461 32.7739 3.5 33.5652 3.5V0.5C31.8244 0.5 30.1863 1.32413 29.1488 2.72197L31.5577 4.50999ZM28.025 9.26949L31.5577 4.50999L29.1488 2.72197L25.6161 7.48147L28.025 9.26949ZM28.025 12.2495C27.3683 11.3647 27.3683 10.1543 28.025 9.26949L25.6161 7.48147C24.1713 9.42802 24.1713 12.091 25.6161 14.0375L28.025 12.2495ZM58.7319 54.557C58.7319 63.1344 53.9574 70.5989 46.914 74.4339L48.3485 77.0687C56.3181 72.7295 61.7319 64.2766 61.7319 54.557H58.7319ZM55.4589 42.8313C57.5356 46.2493 58.7319 50.2612 58.7319 54.557H61.7319C61.7319 49.6964 60.3767 45.1478 58.0227 41.2735L55.4589 42.8313ZM47.2284 52.158C49.6043 48.0428 53.1993 45.0759 57.2953 43.4461L56.1862 40.6587C51.4857 42.529 47.3555 45.9378 44.6303 50.658L47.2284 52.158ZM48.8132 74.8278C43.8642 68.4937 42.9652 59.5421 47.2284 52.158L44.6303 50.658C39.7349 59.1371 40.7732 69.4102 46.4493 76.6748L48.8132 74.8278ZM44.8836 85.9814C42.0955 86.7576 39.1554 87.1729 36.1159 87.1729V90.1729C39.43 90.1729 42.6406 89.7199 45.6882 88.8715L44.8836 85.9814ZM36.1159 87.1729C18.1027 87.1729 3.5 72.5703 3.5 54.557H0.5C0.5 74.2271 16.4458 90.1729 36.1159 90.1729V87.1729ZM3.5 54.557C3.5 36.5437 18.1027 21.941 36.1159 21.941V18.941C16.4458 18.941 0.5 34.8868 0.5 54.557H3.5ZM36.1159 21.941C45.2921 21.941 53.581 25.7285 59.5094 31.8293L61.6609 29.7386C55.191 23.0805 46.1356 18.941 36.1159 18.941V21.941ZM60.7858 32.2704C66.6071 31.4847 72.6938 32.3782 78.2828 35.1562L79.6182 32.4698C73.4746 29.4161 66.7808 28.434 60.3845 29.2974L60.7858 32.2704ZM79.7005 32.514L79.5002 32.3983L78.0002 34.9964L78.2005 35.112L79.7005 32.514ZM79.5002 32.3983C78.815 32.0027 78.3575 31.306 78.2667 30.5199L75.2865 30.8639C75.4861 32.5933 76.4926 34.126 78.0002 34.9964L79.5002 32.3983ZM78.2667 30.5199L77.6716 25.364L74.6914 25.708L75.2865 30.8639L78.2667 30.5199ZM77.6716 25.364C77.5452 24.2693 78.1505 23.2211 79.1616 22.7832L77.9694 20.0303C75.7449 20.9936 74.4134 23.2998 74.6914 25.708L77.6716 25.364ZM79.1616 22.7832L83.9244 20.7206L82.7322 17.9677L77.9694 20.0303L79.1616 22.7832ZM83.9244 20.7206C84.6505 20.4061 85.4826 20.454 86.1679 20.8497L87.6679 18.2516C86.1603 17.3812 84.3296 17.2759 82.7322 17.9677L83.9244 20.7206ZM86.1679 20.8497L90.796 23.5217L92.296 20.9236L87.6679 18.2516L86.1679 20.8497ZM90.796 23.5217C91.4813 23.9174 91.9388 24.6141 92.0295 25.4001L95.0098 25.0561C94.8102 23.3268 93.8036 21.7941 92.296 20.9236L90.796 23.5217ZM92.0295 25.4001L92.6247 30.5561L95.6049 30.2121L95.0098 25.0561L92.0295 25.4001ZM92.6247 30.5561C92.751 31.6507 92.1458 32.699 91.1347 33.1369L92.3269 35.8898C94.5514 34.9265 95.8829 32.6203 95.6049 30.2121L92.6247 30.5561ZM91.1347 33.1369L86.3719 35.1995L87.5641 37.9524L92.3269 35.8898L91.1347 33.1369ZM86.3719 35.1995C85.6458 35.5139 84.8137 35.4661 84.1284 35.0704L82.6284 37.6685C84.136 38.5389 85.9666 38.6442 87.5641 37.9524L86.3719 35.1995ZM84.1284 35.0704L83.1839 34.5251L81.6839 37.1232L82.6284 37.6685L84.1284 35.0704ZM81.6045 37.074C94.8332 45.8531 99.116 63.5293 91.068 77.4688L93.6661 78.9688C102.511 63.6486 97.8039 44.224 83.2634 34.5743L81.6045 37.074ZM91.068 77.4688C82.6979 91.9662 64.1601 96.9334 49.6627 88.5633L48.1627 91.1614C64.095 100.36 84.4676 94.9011 93.6661 78.9688L91.068 77.4688ZM49.6627 88.5633C48.4413 87.8581 47.2881 87.0813 46.2053 86.2413L44.3665 88.6116C45.5566 89.5349 46.8229 90.3879 48.1627 91.1614L49.6627 88.5633ZM37.421 77.136C36.9892 77.1605 36.5541 77.1729 36.1159 77.1729V80.1729C36.6109 80.1729 37.1028 80.1589 37.5912 80.1311L37.421 77.136ZM36.1159 77.1729C23.6255 77.1729 13.5 67.0474 13.5 54.557H10.5C10.5 68.7043 21.9686 80.1729 36.1159 80.1729V77.1729ZM13.5 54.557C13.5 42.0665 23.6255 31.941 36.1159 31.941V28.941C21.9687 28.941 10.5 40.4097 10.5 54.557H13.5ZM36.1159 31.941C40.7403 31.941 45.0363 33.3274 48.6166 35.7067L50.2771 33.2082C46.22 30.5119 41.3491 28.941 36.1159 28.941V31.941ZM38.5681 47.158C41.4353 42.192 45.492 38.3472 50.1703 35.7715L48.7234 33.1434C43.5792 35.9757 39.1184 40.2048 35.9701 45.658L38.5681 47.158ZM38.7944 77.8653C33.35 68.735 32.8787 57.0123 38.5681 47.158L35.9701 45.658C29.7155 56.4913 30.2392 69.3759 36.2177 79.4018L38.7944 77.8653ZM67.1035 42.126C69.796 42.4293 72.4726 43.2798 74.9735 44.7237L76.4735 42.1256C73.6084 40.4715 70.5344 39.4935 67.4394 39.1449L67.1035 42.126ZM74.9735 44.7237C84.688 50.3324 88.0164 62.7543 82.4078 72.4688L85.0058 73.9688C91.4429 62.8194 87.6229 48.5627 76.4735 42.1256L74.9735 44.7237ZM82.4078 72.4688C77.1702 81.5406 65.9892 85.0442 56.6227 80.8994L55.4087 83.6428C66.1618 88.4012 78.9936 84.3823 85.0058 73.9688L82.4078 72.4688ZM68.7319 54.557C68.7319 65.4692 63.3745 75.1301 55.1398 81.0534L56.8916 83.4888C65.8763 77.0261 71.7319 66.4754 71.7319 54.557H68.7319ZM65.9023 41.2482C67.7202 45.3103 68.7319 49.8135 68.7319 54.557H71.7319C71.7319 49.383 70.6277 44.4629 68.6406 40.0227L65.9023 41.2482Z" fill="white"/>
</svg>
