<svg width="55" height="74" viewBox="0 0 55 74" fill="none" xmlns="http://www.w3.org/2000/svg">
<path d="M25.5315 0.728685C20.278 -0.804074 16.3451 0.350784 14.1181 1.71859C13.0468 2.37655 12.5708 3.63302 12.67 4.88629C13.0345 9.49293 14.6466 13.1958 16.4162 15.8661C18.1173 18.4328 18.3659 22.1599 16.4329 24.5569C5.24388 38.4315 1.50602 56.1831 0.862212 66.3355C0.728362 68.4462 2.08903 70.3316 4.12459 70.9056C21.4875 75.802 40.7812 73.3654 51.2077 70.8225C53.3405 70.3023 54.7792 68.3481 54.6721 66.1553C53.7215 46.681 45.4323 32.0487 39.0197 24.3308C37.081 21.9975 37.1648 18.4059 38.8085 15.8561C41.2841 12.0157 42.3212 7.768 42.626 4.85448C42.7551 3.62025 42.2961 2.36924 41.2556 1.69307C37.7246 -0.601443 32.5266 -0.0962234 29.107 0.78606C27.934 1.0887 26.6944 1.06797 25.5315 0.728685Z" fill="white"/>
</svg>
